<?xml version="1.0" encoding="UTF-8" standalone="no"?>
<!DOCTYPE svg PUBLIC "-//W3C//DTD SVG 1.1//EN" "http://www.w3.org/Graphics/SVG/1.1/DTD/svg11.dtd">
<svg width="100%" height="100%" viewBox="0 0 64 64" version="1.1" xmlns="http://www.w3.org/2000/svg" xmlns:xlink="http://www.w3.org/1999/xlink" xml:space="preserve" xmlns:serif="http://www.serif.com/" style="fill-rule:evenodd;clip-rule:evenodd;stroke-linejoin:round;stroke-miterlimit:2;">
    <path d="M32,6C25.055,6 18.526,8.704 13.615,13.615C8.704,18.526 6,25.055 6,32C6,38.945 8.704,45.474 13.615,50.385C18.526,55.296 25.055,58 32,58C38.945,58 45.474,55.295 50.385,50.385C55.296,45.475 58,38.945 58,32C58,25.055 55.295,18.526 50.385,13.615C45.475,8.704 38.945,6 32,6ZM32,0C49.673,0 64,14.327 64,32C64,49.673 49.673,64 32,64C14.327,64 0,49.673 0,32C0,14.327 14.327,0 32,0ZM28,44L36,44L36,52L28,52L28,44ZM28,12L36,12L36,36L28,36L28,12Z" style="fill-rule:nonzero;"/>
</svg>
