<?xml version="1.0" encoding="UTF-8" standalone="no"?>
<!DOCTYPE svg PUBLIC "-//W3C//DTD SVG 1.1//EN" "http://www.w3.org/Graphics/SVG/1.1/DTD/svg11.dtd">
<svg width="100%" height="100%" viewBox="0 0 1792 1792" version="1.1" xmlns="http://www.w3.org/2000/svg" xmlns:xlink="http://www.w3.org/1999/xlink" xml:space="preserve" xmlns:serif="http://www.serif.com/" style="fill-rule:evenodd;clip-rule:evenodd;stroke-linejoin:round;stroke-miterlimit:2;">
    <g transform="matrix(1.14222,0,0,-1.14222,10.5244,1577.51)">
        <g id="g3039">
            <path id="path3041" d="M1040,320C1040,298 1032.17,279.167 1016.5,263.5C1000.83,247.833 982,240 960,240C938,240 919.167,247.833 903.5,263.5C887.833,279.167 880,298 880,320C880,342 887.833,360.833 903.5,376.5C919.167,392.167 938,400 960,400C982,400 1000.83,392.167 1016.5,376.5C1032.17,360.833 1040,342 1040,320ZM1296,320C1296,298 1288.17,279.167 1272.5,263.5C1256.83,247.833 1238,240 1216,240C1194,240 1175.17,247.833 1159.5,263.5C1143.83,279.167 1136,298 1136,320C1136,342 1143.83,360.833 1159.5,376.5C1175.17,392.167 1194,400 1216,400C1238,400 1256.83,392.167 1272.5,376.5C1288.17,360.833 1296,342 1296,320ZM1408,160L1408,480C1408,488.667 1404.83,496.167 1398.5,502.5C1392.17,508.833 1384.67,512 1376,512L160,512C151.333,512 143.833,508.833 137.5,502.5C131.167,496.167 128,488.667 128,480L128,160C128,151.333 131.167,143.833 137.5,137.5C143.833,131.167 151.333,128 160,128L1376,128C1384.67,128 1392.17,131.167 1398.5,137.5C1404.83,143.833 1408,151.333 1408,160ZM178,640L1358,640L1201,1122C1198.33,1130.67 1193,1137.83 1185,1143.5C1177,1149.17 1168.33,1152 1159,1152L377,1152C367.667,1152 359,1149.17 351,1143.5C343,1137.83 337.667,1130.67 335,1122L178,640ZM1536,480L1536,160C1536,116 1520.33,78.333 1489,47C1457.67,15.667 1420,0 1376,0L160,0C116,0 78.333,15.667 47,47C15.667,78.333 0,116 0,160L0,480C0,496.667 5.333,521.667 16,555L213,1161C224.333,1196.33 245.333,1225 276,1247C306.667,1269 340.333,1280 377,1280L1159,1280C1195.67,1280 1229.33,1269 1260,1247C1290.67,1225 1311.67,1196.33 1323,1161L1520,555C1530.67,521.667 1536,496.667 1536,480Z" style="fill-rule:nonzero;"/>
        </g>
    </g>
</svg>
