<?xml version="1.0" encoding="UTF-8" standalone="no"?><!DOCTYPE svg PUBLIC "-//W3C//DTD SVG 1.1//EN" "http://www.w3.org/Graphics/SVG/1.1/DTD/svg11.dtd"><svg width="100%" height="100%" viewBox="0 0 512 512" version="1.1" xmlns="http://www.w3.org/2000/svg" xmlns:xlink="http://www.w3.org/1999/xlink" xml:space="preserve" xmlns:serif="http://www.serif.com/" style="fill-rule:evenodd;clip-rule:evenodd;stroke-linejoin:round;stroke-miterlimit:1.41421;"><path d="M464,128l-192,0l-54.63,-54.63c-6,-6 -14.14,-9.37 -22.63,-9.37l-146.74,0c-26.51,0 -48,21.49 -48,48l0,288c0,26.51 21.49,48 48,48l416,0c26.51,0 48,-21.49 48,-48l0,-224c0,-26.51 -21.49,-48 -48,-48Zm0,272l-416,0l0,-288l140.12,0l54.63,54.63c6,6 14.14,9.37 22.63,9.37l198.62,0l0,224Z" style="fill-rule:nonzero;"/><path d="M91.134,277.984l-9.824,-9.824c-4.16,-4.159 -4.16,-10.885 0,-15.001l85.98,-86.024c4.159,-4.159 10.885,-4.159 15.001,0l85.98,85.98c4.159,4.16 4.159,10.886 0,15.001l-9.824,9.824c-4.204,4.204 -11.063,4.115 -15.178,-0.177l-50.756,-53.278l0,127.177c0,5.886 -4.735,10.62 -10.62,10.62l-14.161,0c-5.885,0 -10.62,-4.734 -10.62,-10.62l0,-127.177l-50.8,53.322c-4.116,4.337 -10.974,4.425 -15.178,0.177Z" style="fill-rule:nonzero;"/></svg>