<?xml version="1.0" encoding="utf-8"?>
<!-- Svg Vector Icons : http://www.onlinewebfonts.com/icon -->
<!DOCTYPE svg PUBLIC "-//W3C//DTD SVG 1.1//EN" "http://www.w3.org/Graphics/SVG/1.1/DTD/svg11.dtd">
<svg version="1.1" xmlns="http://www.w3.org/2000/svg" xmlns:xlink="http://www.w3.org/1999/xlink" x="0px" y="0px" viewBox="0 0 1000 1000" enable-background="new 0 0 1000 1000" xml:space="preserve">
<metadata> Svg Vector Icons : http://www.onlinewebfonts.com/icon </metadata>
<g><path d="M500,990c-121,0.1-242.6-46.4-334.9-138.7l0,0C72.8,759,26.3,637.4,26.4,516.4l0,0c-0.1-121,46.4-242.6,138.7-334.9l0,0c28.1-28.1,73.7-28.1,101.8,0l0,0c28.1,28.1,28.1,73.7,0,101.8l0,0c-64.5,64.5-96.5,148.5-96.6,233.1l0,0c0.1,84.6,32,168.5,96.6,233.1l0,0C331.5,814,415.4,846,500,846l0,0c84.6-0.1,168.5-32,233.1-96.5l0,0c64.5-64.6,96.5-148.5,96.5-233.1l0,0c-0.1-84.6-32-168.5-96.5-233.1l0,0v0c-28.1-28.1-28.1-73.7,0-101.8l0,0c28.1-28.1,73.7-28.1,101.8,0l0,0c92.3,92.3,138.8,213.9,138.7,334.9l0,0c0.1,121-46.4,242.6-138.7,334.9l0,0C742.7,943.6,621.2,990,500.3,990l0,0C500.2,990,500.1,990,500,990L500,990L500,990z M428,516.4V82c0-39.7,32.2-72,72-72l0,0c39.8,0,72,32.2,72,72l0,0v434.5c0,39.7-32.2,72-72,72l0,0C460.3,588.4,428,556.2,428,516.4L428,516.4L428,516.4z"/></g>
</svg>