<?xml version="1.0" encoding="UTF-8" standalone="no"?><!DOCTYPE svg PUBLIC "-//W3C//DTD SVG 1.1//EN" "http://www.w3.org/Graphics/SVG/1.1/DTD/svg11.dtd"><svg width="100%" height="100%" viewBox="0 0 200 200" version="1.1" xmlns="http://www.w3.org/2000/svg" xmlns:xlink="http://www.w3.org/1999/xlink" xml:space="preserve" xmlns:serif="http://www.serif.com/" style="fill-rule:evenodd;clip-rule:evenodd;stroke-linejoin:round;stroke-miterlimit:1.41421;"><path d="M197.818,49.361c0,6.101 -4.942,11.042 -11.041,11.042l-174.964,0c-6.1,0 -11.041,-4.941 -11.041,-11.042c0,-6.099 4.941,-11.041 11.041,-11.041l174.964,0c6.099,0 11.041,4.942 11.041,11.041Z" style="fill-rule:nonzero;"/><path d="M197.818,102.575c0,6.101 -4.942,11.041 -11.041,11.041l-174.964,0c-6.1,0 -11.041,-4.94 -11.041,-11.041c0,-6.1 4.941,-11.042 11.041,-11.042l174.964,0c6.099,0 11.041,4.942 11.041,11.042Z" style="fill-rule:nonzero;"/><path d="M197.818,155.788c0,6.1 -4.942,11.042 -11.041,11.042l-174.964,0c-6.1,0 -11.041,-4.942 -11.041,-11.042c0,-6.099 4.941,-11.041 11.041,-11.041l174.964,0c6.099,-0.001 11.041,4.942 11.041,11.041Z" style="fill-rule:nonzero;"/></svg>