<?xml version="1.0" encoding="UTF-8" standalone="no"?>
<!DOCTYPE svg PUBLIC "-//W3C//DTD SVG 1.1//EN" "http://www.w3.org/Graphics/SVG/1.1/DTD/svg11.dtd">
<svg width="100%" height="100%" viewBox="0 0 448 512" version="1.1" xmlns="http://www.w3.org/2000/svg" xmlns:xlink="http://www.w3.org/1999/xlink" xml:space="preserve" xmlns:serif="http://www.serif.com/" style="fill-rule:evenodd;clip-rule:evenodd;stroke-linejoin:round;stroke-miterlimit:2;">
    <path d="M96,363.3C96,363.3 0.027,267.327 0,267.3C0,267.3 0,267.3 0,267.3C-6.202,261.094 -6.202,250.886 0,244.68C0,244.68 0,244.68 0,244.68C0.027,244.653 96,148.68 96,148.68C106.04,138.66 123.31,145.78 123.31,160L123.31,352C123.31,366.31 105.98,373.3 96,363.3ZM432,416L16,416C7.223,416 0,423.223 0,432L0,464C0,472.777 7.223,480 16,480L432,480C440.777,480 448,472.777 448,464L448,432C448,423.223 440.777,416 432,416ZM435.17,288L204.83,288C204.827,288 204.823,288 204.82,288C197.787,288 192,293.787 192,300.82C192,300.823 192,300.827 192,300.83L192,339.17C192,339.173 192,339.177 192,339.18C192,346.213 197.787,352 204.82,352C204.823,352 204.827,352 204.83,352L435.17,352C435.173,352 435.177,352 435.18,352C442.213,352 448,346.213 448,339.18C448,339.177 448,339.173 448,339.17L448,300.83C448,300.827 448,300.823 448,300.82C448,293.787 442.213,288 435.18,288C435.177,288 435.173,288 435.17,288ZM435.17,160L204.83,160C204.827,160 204.823,160 204.82,160C197.787,160 192,165.787 192,172.82C192,172.823 192,172.827 192,172.83L192,211.17C192,211.173 192,211.177 192,211.18C192,218.213 197.787,224 204.82,224C204.823,224 204.827,224 204.83,224L435.17,224C435.173,224 435.177,224 435.18,224C442.213,224 448,218.213 448,211.18C448,211.177 448,211.173 448,211.17L448,172.83C448,172.827 448,172.823 448,172.82C448,165.787 442.213,160 435.18,160C435.177,160 435.173,160 435.17,160ZM432,32L16,32C7.223,32 0,39.223 0,48L0,80C0,88.777 7.223,96 16,96L432,96C440.777,96 448,88.777 448,80L448,48C448,39.223 440.777,32 432,32Z" style="fill-rule:nonzero;"/>
</svg>
