<?xml version="1.0" encoding="UTF-8" standalone="no"?>
<!DOCTYPE svg PUBLIC "-//W3C//DTD SVG 1.1//EN" "http://www.w3.org/Graphics/SVG/1.1/DTD/svg11.dtd">
<svg width="100%" height="100%" viewBox="0 0 64 64" version="1.1" xmlns="http://www.w3.org/2000/svg" xmlns:xlink="http://www.w3.org/1999/xlink" xml:space="preserve" xmlns:serif="http://www.serif.com/" style="fill-rule:evenodd;clip-rule:evenodd;stroke-linejoin:round;stroke-miterlimit:2;">
    <path d="M32,5.798L58.819,59.25L5.181,59.25L32,5.798ZM32,0C30.621,0 29.241,0.93 28.195,2.791L0.878,57.235C-1.215,60.956 0.565,64 4.835,64L59.167,64C63.436,64 65.216,60.956 63.123,57.235L35.806,2.791C34.76,0.931 33.38,0 32.001,0L32,0Z" style="fill-rule:nonzero;"/>
    <path d="M36,52C36,54.209 34.209,56 32,56C29.791,56 28,54.209 28,52C28,49.791 29.791,48 32,48C34.209,48 36,49.791 36,52Z" style="fill-rule:nonzero;"/>
    <path d="M32,44C29.791,44 28,42.209 28,40L28,28C28,25.791 29.791,24 32,24C34.209,24 36,25.791 36,28L36,40C36,42.209 34.209,44 32,44Z" style="fill-rule:nonzero;"/>
</svg>
