<?xml version="1.0" encoding="UTF-8" standalone="no"?>
<!DOCTYPE svg PUBLIC "-//W3C//DTD SVG 1.1//EN" "http://www.w3.org/Graphics/SVG/1.1/DTD/svg11.dtd">
<svg width="100%" height="100%" viewBox="0 0 512 512" version="1.1" xmlns="http://www.w3.org/2000/svg" xmlns:xlink="http://www.w3.org/1999/xlink" xml:space="preserve" xmlns:serif="http://www.serif.com/" style="fill-rule:evenodd;clip-rule:evenodd;stroke-linejoin:round;stroke-miterlimit:2;">
    <g transform="matrix(0.496416,0,0,0.496416,101.837,99.2882)">
        <g transform="matrix(2.15258,0,0,2.15258,-278.175,-288.797)">
            <circle cx="273.047" cy="280.367" r="238.76" style="fill:rgb(25,116,203);"/>
        </g>
        <g transform="matrix(0.827994,0,0,0.827994,-6.07515,23.5028)">
            <g id="conch-2-svgrepo-com.svg">
                <g>
                    <g>
                        <path d="M753.419,227.569C733.978,179.309 704.191,134.055 663.356,95.284C629.948,63.561 590.531,39.753 548.294,23.892C506.03,7.988 460.97,0.028 415.981,0C371.595,0.028 327.269,7.805 285.872,23.623C244.519,39.444 206.056,63.405 173.814,95.677C144.392,125.098 121.891,159.881 106.717,197.22C91.556,234.531 83.683,274.395 83.683,314.094C83.683,349.017 89.775,383.802 102.478,416.522C112.753,442.983 127.436,468.023 146.541,490.513L17.889,635.234L30.522,649.916C72.802,699.045 125.034,736.595 182.081,761.791C239.17,787.031 301.116,800 363.133,800C416.727,800 470.348,790.33 520.895,770.383C571.442,750.45 618.845,720.214 659.722,679.38C699.025,640.077 729.584,592.603 750.317,541.073C771.077,489.558 782.111,433.914 782.111,378.061C782.111,327.034 772.917,275.828 753.419,227.569ZM709.216,524.509C690.533,570.803 663.133,613.223 628.363,648.022C591.88,684.475 549.755,711.316 504.641,729.114C459.511,746.928 411.378,755.658 363.133,755.658C307.308,755.672 251.37,743.964 200.022,721.253C154.416,701.081 112.431,672.25 77.156,635.319L178.081,521.787C200.205,540.203 225.106,554.928 251.553,565.611C285.184,579.198 321.191,586.33 357.013,586.33C386.756,586.33 416.389,581.389 444.197,570.889C471.991,560.361 497.973,544.233 520.055,522.153C540.647,501.547 556.172,477.641 566.461,452.164C576.792,426.673 581.958,399.638 581.958,372.573C581.958,345.566 576.792,318.558 566.461,293.123C556.13,267.688 540.603,243.825 520.055,223.261C502.55,205.756 482.589,192.759 461.631,184.195C440.673,175.633 418.734,171.464 397.159,171.464C374.812,171.464 352.844,175.942 332.687,184.686C312.587,193.461 294.269,206.556 279.586,223.738C255.919,251.392 242.992,285.488 242.948,319.78C242.948,336.189 245.952,352.655 252.241,368.222C258.487,383.789 268.005,398.444 280.75,411.147C291.377,421.816 303.462,429.747 316.095,434.911C328.742,440.077 341.923,442.477 354.823,442.477C369.395,442.448 383.614,439.417 396.683,433.914C409.764,428.412 421.711,420.439 431.775,410.359C440.197,401.923 445.994,391.97 449.573,381.864C453.209,371.758 454.739,361.455 454.781,351.572C454.739,339.794 452.663,328.606 448.184,318.444C445.911,313.362 443.019,308.506 439.059,304.07C435.142,299.648 430.019,295.564 423.492,293.066C412.038,288.686 399.208,294.384 394.856,305.825C390.645,316.773 395.727,329 406.212,333.842C406.789,334.614 408.038,336.889 408.922,340.061C409.834,343.233 410.423,347.333 410.423,351.572C410.423,356.737 409.581,362.156 407.855,366.928C406.128,371.702 403.642,375.786 400.414,379.002C394.519,384.911 387.303,389.753 379.47,393.037C371.623,396.35 363.173,398.133 354.82,398.133C347.383,398.133 340.013,396.772 332.867,393.852C325.736,390.917 318.773,386.441 312.106,379.798C303.572,371.25 297.45,361.762 293.38,351.655C289.323,341.577 287.302,330.797 287.302,319.777C287.273,296.77 296.13,272.57 313.27,252.553C323.391,240.762 336.053,231.609 350.384,225.348C364.745,219.116 380.719,215.805 397.156,215.805C413.019,215.805 429.287,218.864 444.853,225.237C460.42,231.611 475.328,241.281 488.662,254.617C505.002,270.942 517.2,289.752 525.356,309.795C533.497,329.842 537.597,351.205 537.597,372.57C537.597,393.992 533.527,415.411 525.356,435.512C517.228,455.614 505.03,474.425 488.662,490.805C471.256,508.197 450.861,520.914 428.514,529.378C406.125,537.844 381.812,541.997 357.009,541.997C327.125,542.011 296.566,535.961 268.183,524.48C239.744,513.025 213.495,496.123 192.031,474.648C170.345,452.919 154.412,427.736 143.828,400.477C133.244,373.203 128.037,343.852 128.037,314.092C128.037,280.262 134.761,245.97 147.802,213.923C160.814,181.848 180.13,152.048 205.156,127.034C232.725,99.494 265.727,78.831 301.731,65.047C337.737,51.233 376.759,44.356 415.978,44.356C455.689,44.356 495.583,51.431 532.683,65.384C569.755,79.322 604.047,100.084 632.795,127.428C668.955,161.778 695.063,201.502 712.288,244.161C729.497,286.791 737.738,332.37 737.738,378.061C737.739,428.073 727.858,478.214 709.216,524.509Z" style="fill:white;fill-rule:nonzero;"/>
                    </g>
                </g>
            </g>
        </g>
    </g>
</svg>
